# File created by Blade
# Date/Time:  Thu Sep 25 15:41:58 2014
# Frame Rate: 120.000 fps
#------------------------------------------------------
:FULLY-SPECIFIED
:DEGREES
393
root 16.362477 31.527007 -2.316369 170.964618 -74.452291 -122.700688
Spine 23.256931 16.248436 -2.902800
Head -42.924277 0.090740 9.844286
LeftShoulder 16.593125 -9.383198 31.931874
LeftArm 64.192182 -20.313188 -30.817632
LeftForeArm 3.324415 -0.000000 17.135437
LeftHand -24.793635 0.000000 -3.637913
LeftHandThumb1 -26.253704 0.000000 33.147579
RightShoulder 11.761919 38.629505 -26.491806
RightArm 48.592090 -4.968385 50.694257
RightForeArm -21.388500 0.000000 17.951823
RightHand -5.752861 -0.000000 0.899850
RightHandThumb1 -24.326973 -0.000000 -32.862282
LeftUpLeg -86.377859 9.394786 -6.056697
LeftLeg 40.334900 -0.000000 -0.000000
LeftFoot 3.446079 15.368922 -17.207153
LeftToeBase -5.225508 -0.000000 0.000000
RightUpLeg -28.791364 3.192994 16.239019
RightLeg 7.593020 -0.000000 -0.000000
RightFoot -17.350830 -7.725273 -5.935250
RightToeBase -7.803107 -0.000000 0.000000
394
root 16.015168 31.496691 -2.300527 171.618703 -74.397601 -122.757051
Spine 23.251869 16.201368 -3.251569
Head -43.305952 0.291643 9.904152
LeftShoulder 16.394168 -9.635823 32.235230
LeftArm 63.929410 -20.445322 -30.722743
LeftForeArm 3.009333 -0.000000 17.054197
LeftHand -24.394452 -0.000000 -3.031172
LeftHandThumb1 -26.253704 0.000000 33.147579
RightShoulder 11.677311 38.402014 -26.576663
RightArm 49.135290 -4.561150 50.325500
RightForeArm -21.298307 -0.000000 17.972082
RightHand -5.819836 -0.000000 0.779613
RightHandThumb1 -24.326973 -0.000000 -32.862282
LeftUpLeg -86.783391 9.322085 -6.175523
LeftLeg 41.324229 -0.000000 -0.000000
LeftFoot 1.749814 15.154350 -17.324115
LeftToeBase -4.781915 -0.000000 0.000000
RightUpLeg -28.931272 3.110369 16.183020
RightLeg 7.901990 -0.000000 -0.000000
RightFoot -17.060555 -7.937353 -6.171941
RightToeBase -8.354131 -0.000000 0.000000
395
root 15.671121 31.468441 -2.290476 172.390227 -74.306209 -122.789947
Spine 23.067374 16.248931 -3.684414
Head -43.676872 0.505080 10.117144
LeftShoulder 16.251527 -9.748192 32.671741
LeftArm 63.734556 -20.788209 -30.815682
LeftForeArm 3.159449 0.000000 17.146889
LeftHand -24.460863 -0.000000 -3.225247
LeftHandThumb1 -26.253704 0.000000 33.147579
RightShoulder 11.623401 38.603094 -26.637085
RightArm 49.185202 -4.391272 50.110383
RightForeArm -20.989426 -0.000000 18.034076
RightHand -5.757976 -0.000000 0.695884
RightHandThumb1 -24.326973 -0.000000 -32.862282
LeftUpLeg -87.290835 9.286747 -6.341089
LeftLeg 42.237902 -0.000000 -0.000000
LeftFoot -0.008547 15.021237 -17.573852
LeftToeBase -4.524389 -0.000000 0.000000
RightUpLeg -29.193808 3.219282 16.086051
RightLeg 8.203100 -0.000000 -0.000000
RightFoot -16.715915 -8.089791 -6.352239
RightToeBase -8.910300 -0.000000 0.000000
396
root 15.321477 31.430470 -2.277134 172.826325 -74.271762 -122.481091
Spine 22.910182 16.205188 -3.921116
Head -43.934895 0.556222 10.157852
LeftShoulder 16.145334 -9.813366 32.898906
LeftArm 63.571175 -21.104367 -30.757895
LeftForeArm 3.202540 -0.000000 17.216161
LeftHand -24.640871 0.000000 -3.416851
LeftHandThumb1 -26.253704 0.000000 33.147579
RightShoulder 11.539908 38.691103 -26.848484
RightArm 49.257001 -4.142893 50.004172
RightForeArm -20.951977 -0.000000 18.141175
RightHand -5.791492 -0.000000 0.455278
RightHandThumb1 -24.326973 -0.000000 -32.862282
LeftUpLeg -87.765405 9.140243 -6.314776
LeftLeg 43.182493 -0.000000 -0.000000
LeftFoot -1.784053 14.875299 -17.756500
LeftToeBase -4.167447 -0.000000 0.000000
RightUpLeg -29.412755 3.177738 16.106050
RightLeg 8.399303 -0.000000 -0.000000
RightFoot -16.396347 -8.258767 -6.588899
RightToeBase -9.381187 -0.000000 0.000000
397
root 14.966665 31.389739 -2.263485 173.283763 -74.268492 -122.150660
Spine 22.704913 16.068539 -4.214904
Head -44.238803 0.686907 10.183789
LeftShoulder 15.990876 -9.971609 33.147468
LeftArm 63.283342 -21.232871 -30.576442
LeftForeArm 3.247067 -0.000000 17.182443
LeftHand -24.466814 -0.000000 -3.089649
LeftHandThumb1 -26.253704 0.000000 33.147579
RightShoulder 11.488610 38.486872 -26.926269
RightArm 49.701143 -3.770056 49.699218
RightForeArm -20.805468 -0.000000 18.143677
RightHand -5.714450 -0.000000 0.295660
RightHandThumb1 -24.326973 -0.000000 -32.862282
LeftUpLeg -88.233154 8.962349 -6.241224
LeftLeg 44.081030 -0.000000 -0.000000
LeftFoot -3.442251 14.630698 -17.876209
LeftToeBase -3.968409 -0.000000 0.000000
RightUpLeg -29.663606 3.111710 16.137836
RightLeg 8.583615 -0.000000 -0.000000
RightFoot -16.065144 -8.512378 -6.837077
RightToeBase -9.857958 -0.000000 0.000000
398
root 14.609326 31.345508 -2.246305 173.905539 -74.275964 -122.038285
Spine 22.642432 16.017343 -4.491205
Head -44.617384 0.696174 10.139276
LeftShoulder 15.940408 -10.108764 33.344030
LeftArm 62.962617 -21.510218 -30.267684
LeftForeArm 3.044180 -0.000000 17.195330
LeftHand -24.543241 -0.000000 -3.066371
LeftHandThumb1 -26.253704 0.000000 33.147579
RightShoulder 11.348475 38.389916 -27.192008
RightArm 49.964652 -3.352050 49.531838
RightForeArm -20.760354 -0.000000 18.202708
RightHand -5.763576 -0.000000 0.087764
RightHandThumb1 -24.326973 -0.000000 -32.862282
LeftUpLeg -88.592333 8.755680 -6.120969
LeftLeg 44.890856 -0.000000 -0.000000
LeftFoot -5.042945 14.309259 -18.085819
LeftToeBase -4.053422 -0.000000 0.000000
RightUpLeg -29.885519 3.009973 16.092228
RightLeg 8.779857 -0.000000 -0.000000
RightFoot -15.758419 -8.647571 -7.114945
RightToeBase -10.407322 -0.000000 0.000000
